# xmcd
#
# Track frame offsets:
#	150
#	14276
#	27707
#	45941
#	65993
#	80948
#	98146
#	113270
#	127961
#	142495
#	155707
#	173579
#	186194
#	200177
#	214062
#	230844
#	246337
#	261286
#
# Disc length: 3658
#
# Revision: 5
# Processed by: cddbd v1.5.1PL0 Copyright (c) Steve Scherf et al.
# Submitted via: CDex 1.50beta10
# Normalized: r3:TDELIM( - ),TSWAP
#
DISCID=140e4812
DTITLE=Various Artist - Jazz For Lovers
DYEAR=1900
DGENRE=Jazz
TTITLE0=Billie Holiday - The Man I Love
TTITLE1=Duke Ellington Orch. - Prelude To A Kiss
TTITLE2=B. Clayton, Flip Phillips - Love Me Or Leave Me
TTITLE3=Louis Armstrong - I Can't Give You Anything But Love
TTITLE4=Harry James Orch. - You Made Me Love You
TTITLE5=Ben Webster, Marlowe Morris - Memories Of You
TTITLE6=Stephane Grappely, Django Reinhardt - Nuages
TTITLE7=Thelonious Monk - 'Round Midnight
TTITLE8=Johnny Hodges, Duke Ellington - Passion Flower
TTITLE9=Erroll Garner - For You
TTITLE10=Lester Young, Nat King Cole, Buddy Rich - Somebody Loves Me
TTITLE11=Art Tatum - Love Me
TTITLE12=Bill Coleman - I'm In The Mood For Love
TTITLE13=Coleman Hawkins - Body And Soul
TTITLE14=Nat King Cole - What Is This Thing Called Love
TTITLE15=Benny Goodman - Moonglow
TTITLE16=Dexter Gordon - I Can't Escape From You
TTITLE17=Dizzy Gillespie - When I Grow Too Old To Dream
EXTD=
EXTT0=
EXTT1=
EXTT2=
EXTT3=
EXTT4=
EXTT5=
EXTT6=
EXTT7=
EXTT8=
EXTT9=
EXTT10=
EXTT11=
EXTT12=
EXTT13=
EXTT14=
EXTT15=
EXTT16=
EXTT17=
PLAYORDER=
